<?xml version="1.0" encoding="UTF-8" standalone="no"?>
<!-- Created with Inkscape (http://www.inkscape.org/) -->

<svg
   xmlns:dc="http://purl.org/dc/elements/1.1/"
   xmlns:cc="http://creativecommons.org/ns#"
   xmlns:rdf="http://www.w3.org/1999/02/22-rdf-syntax-ns#"
   xmlns:svg="http://www.w3.org/2000/svg"
   xmlns="http://www.w3.org/2000/svg"
   xmlns:sodipodi="http://sodipodi.sourceforge.net/DTD/sodipodi-0.dtd"
   xmlns:inkscape="http://www.inkscape.org/namespaces/inkscape"
   version="1.1"
   id="svg2"
   xml:space="preserve"
   width="392"
   height="162.66667"
   viewBox="0 0 392 162.66667"
   sodipodi:docname="eps..eps"
   inkscape:version="0.92.3 (2405546, 2018-03-11)"><metadata
     id="metadata8"><rdf:RDF><cc:Work
         rdf:about=""><dc:format>image/svg+xml</dc:format><dc:type
           rdf:resource="http://purl.org/dc/dcmitype/StillImage" /><dc:title></dc:title></cc:Work></rdf:RDF></metadata><defs
     id="defs6" /><sodipodi:namedview
     pagecolor="#ffffff"
     bordercolor="#666666"
     borderopacity="1"
     objecttolerance="10"
     gridtolerance="10"
     guidetolerance="10"
     inkscape:pageopacity="0"
     inkscape:pageshadow="2"
     inkscape:window-width="1920"
     inkscape:window-height="1001"
     id="namedview4"
     showgrid="false"
     inkscape:zoom="0.96173469"
     inkscape:cx="196"
     inkscape:cy="81.333336"
     inkscape:window-x="-9"
     inkscape:window-y="-9"
     inkscape:window-maximized="1"
     inkscape:current-layer="g10" /><g
     id="g10"
     inkscape:groupmode="layer"
     inkscape:label="ink_ext_XXXXXX"
     transform="matrix(1.3333333,0,0,-1.3333333,0,162.66667)"><g
       id="g12"
       transform="scale(0.1)"><path
         d="M 856.527,48.5977 V 979.941"
         style="fill:none;stroke:#0a3370;stroke-width:7.08659983;stroke-linecap:butt;stroke-linejoin:miter;stroke-miterlimit:22.92560005;stroke-dasharray:none;stroke-opacity:1"
         id="path14"
         inkscape:connector-curvature="0" /><path
         d="m 991.324,719.867 h 97.246 c 13.79,0.063 25.86,2.031 36.16,5.848 10.23,3.875 18.75,9.215 25.55,16.144 6.8,6.86 11.88,14.934 15.25,24.149 3.37,9.277 5.02,19.324 5.02,30.125 -0.06,11.504 -2.16,21.867 -6.35,31.082 -4.26,9.215 -10.36,16.973 -18.31,23.262 -7.94,6.293 -17.48,10.804 -28.73,13.539 11.06,3.75 19.45,10.039 25.11,18.875 5.59,8.898 8.45,19.765 8.45,32.605 0,8.832 -1.46,17.098 -4.32,24.723 -2.92,7.691 -7.31,14.429 -13.15,20.277 -5.91,5.848 -13.29,10.359 -22.25,13.66 -8.96,3.309 -19.51,4.957 -31.59,5.024 h -88.086 z m 27.456,153.301 v 81.605 h 58.72 c 11,-0.062 19.9,-1.843 26.64,-5.335 6.74,-3.5 11.56,-8.266 14.61,-14.368 3.05,-6.101 4.58,-13.156 4.52,-21.101 0.06,-7.946 -1.34,-14.996 -4.2,-21.102 -2.79,-6.101 -7.31,-10.867 -13.47,-14.363 -6.17,-3.496 -14.3,-5.274 -24.28,-5.336 z m 0,-128.895 v 105.25 h 66.35 c 13.22,-0.066 24.03,-2.351 32.54,-6.867 8.52,-4.511 14.81,-10.676 18.94,-18.554 4.07,-7.883 6.1,-16.969 6.1,-27.204 0.07,-10.105 -1.84,-19.132 -5.71,-27.015 -3.88,-7.879 -9.92,-14.106 -18.18,-18.684 -8.27,-4.511 -19,-6.863 -32.16,-6.926 z m 183.04,-24.406 h 163.22 v 24.406 h -135.76 v 64.829 h 116.31 v 24.023 h -116.31 v 121.648 h 130.42 v 24.407 h -157.88 z m 199.45,0 h 149.87 v 24.406 H 1428.72 V 979.18 h -27.45 z m 157.87,0 h 27.08 l 17.16,43.473 h 131.18 l 17.55,-43.473 h 28.98 l -109.83,261.981 h -4.58 z m 53.77,67.113 45.77,115.168 c 1.27,3.114 2.47,6.422 3.68,9.977 1.21,3.563 2.35,6.867 3.3,10.043 1.02,3.18 1.79,5.723 2.42,7.754 0.57,2.035 0.89,3.051 0.89,3.117 0,-0.066 0.32,-1.082 0.83,-3.117 0.57,-2.031 1.33,-4.574 2.29,-7.754 0.95,-3.176 1.96,-6.48 3.17,-10.043 1.15,-3.555 2.35,-6.863 3.63,-9.977 l 45.76,-115.168 z m 307.75,12.59 c 11.95,4.891 21.92,11.375 30,19.571 8,8.136 14.04,17.605 18.05,28.476 4.07,10.867 6.1,22.817 6.1,35.844 0,14.047 -2.29,26.949 -6.8,38.582 -4.58,11.691 -11.38,21.797 -20.34,30.316 -9.03,8.516 -20.28,15.063 -33.69,19.766 -13.41,4.641 -28.98,6.988 -46.71,7.055 h -58.34 V 719.867 h 27.45 v 68.641 h 30.89 c 4.57,0 9.21,0.191 13.85,0.574 4.65,0.379 9.22,0.949 13.61,1.715 l 49.95,-70.93 h 32.41 z m -84.28,12.961 v 142.242 h 29.37 c 14.55,-0.062 26.94,-1.843 37.18,-5.402 10.23,-3.562 18.55,-8.516 24.91,-14.937 6.42,-6.418 11.06,-13.981 13.98,-22.625 2.99,-8.645 4.45,-18.114 4.39,-28.348 0.06,-10.231 -1.4,-19.703 -4.33,-28.281 -2.92,-8.645 -7.56,-16.145 -13.85,-22.5 -6.35,-6.356 -14.68,-11.313 -24.92,-14.809 -10.29,-3.496 -22.75,-5.273 -37.36,-5.34 z m 266.94,-95.718 c 13.22,0 25.49,1.91 36.74,5.785 11.25,3.812 21.1,9.597 29.55,17.226 8.39,7.688 14.94,17.227 19.64,28.66 4.64,11.379 7.06,24.664 7.12,39.856 v 170.84 h -27.46 V 810.242 c -0.06,-15.379 -2.79,-28.156 -8.13,-38.387 -5.34,-10.23 -12.84,-17.921 -22.63,-23.007 -9.79,-5.086 -21.42,-7.629 -34.83,-7.629 -13.53,0 -25.17,2.543 -34.95,7.629 -9.79,5.086 -17.35,12.777 -22.63,23.007 -5.28,10.231 -7.95,23.008 -8.01,38.387 V 979.18 h -27.46 V 808.34 c 0.07,-15.192 2.42,-28.477 7.06,-39.856 4.71,-11.433 11.18,-20.972 19.57,-28.66 8.39,-7.629 18.24,-13.414 29.49,-17.226 11.32,-3.875 23.58,-5.785 36.93,-5.785 z m 205.93,0 c 11.69,0 22.43,1.589 32.22,4.707 9.79,3.113 18.24,7.691 25.49,13.601 7.18,5.91 12.77,13.156 16.72,21.606 4,8.453 5.97,18.054 6.03,28.73 0,12.902 -2.48,24.086 -7.31,33.621 -4.89,9.535 -12.2,17.988 -21.86,25.297 -9.66,7.375 -21.68,14.109 -36.04,20.402 l -20.59,9.532 c -9.66,4.324 -17.48,8.648 -23.58,12.906 -6.04,4.254 -10.49,9.023 -13.35,14.359 -2.85,5.278 -4.26,11.762 -4.26,19.262 0.07,7.434 1.72,13.918 5.02,19.445 3.31,5.528 8.01,9.789 14.12,12.84 6.16,3.117 13.47,4.641 22.05,4.703 8.07,-0.062 15.13,-1.336 21.1,-3.746 5.97,-2.48 11.12,-5.789 15.51,-10.047 4.39,-4.191 8.2,-9.023 11.44,-14.426 l 22.12,13.727 c -4.58,7.691 -10.04,14.43 -16.59,20.277 -6.49,5.782 -14.17,10.36 -23.01,13.602 -8.83,3.305 -19,4.957 -30.57,5.019 -9.79,0 -18.81,-1.527 -27.07,-4.449 -8.27,-2.926 -15.52,-7.117 -21.62,-12.586 -6.16,-5.465 -10.99,-12.007 -14.36,-19.636 -3.43,-7.629 -5.15,-16.082 -5.21,-25.489 0,-11.949 2.23,-22.246 6.61,-30.761 4.38,-8.516 10.8,-16.016 19.32,-22.368 8.52,-6.359 18.94,-12.332 31.27,-17.8 l 20.59,-9.532 c 10.81,-4.765 19.83,-9.597 27.08,-14.621 7.24,-5.019 12.64,-10.675 16.27,-17.031 3.62,-6.289 5.46,-13.793 5.46,-22.5 -0.12,-9.215 -2.54,-17.094 -7.24,-23.644 -4.71,-6.61 -11.12,-11.696 -19.19,-15.25 -8.08,-3.497 -17.17,-5.278 -27.34,-5.344 -12.14,0.129 -22.43,1.972 -30.88,5.66 -8.46,3.687 -15.51,8.516 -21.23,14.617 -5.78,6.102 -10.62,12.777 -14.62,20.149 l -22.88,-12.204 c 3.43,-6.925 7.76,-13.539 12.97,-19.832 5.21,-6.226 11.43,-11.882 18.81,-16.777 7.31,-4.894 15.82,-8.836 25.48,-11.629 9.73,-2.863 20.72,-4.324 33.12,-4.39 z m 115.93,3.054 h 27.83 V 979.18 h -27.83 z m 56.82,0 h 27.07 l 17.16,43.473 h 131.18 l 17.55,-43.473 h 28.98 l -109.83,261.981 h -4.57 z m 53.77,67.113 45.76,115.168 c 1.27,3.114 2.47,6.422 3.68,9.977 1.21,3.563 2.36,6.867 3.31,10.043 1.02,3.18 1.78,5.723 2.41,7.754 0.57,2.035 0.89,3.051 0.89,3.117 0,-0.066 0.32,-1.082 0.83,-3.117 0.57,-2.031 1.33,-4.574 2.29,-7.754 0.95,-3.176 1.97,-6.48 3.18,-10.043 1.14,-3.555 2.35,-6.863 3.62,-9.977 L 2647.5,786.98 Z m 392.4,-69.785 h 4.58 V 979.18 H 2907.2 V 804.145 c 0,-2.86 0.12,-5.915 0.31,-9.282 0.19,-3.304 0.38,-6.484 0.64,-9.531 0.25,-3.051 0.44,-5.594 0.64,-7.504 0.18,-1.969 0.31,-2.984 0.31,-3.047 -0.06,0.063 -0.64,0.887 -1.78,2.543 -1.14,1.59 -2.67,3.684 -4.44,6.164 -1.85,2.543 -3.75,5.149 -5.85,7.879 -2.04,2.735 -4.01,5.215 -5.85,7.438 l -154.83,183.043 h -4.57 V 719.867 h 25.93 v 175.035 c 0,2.86 -0.13,5.911 -0.38,9.278 -0.19,3.308 -0.45,6.484 -0.77,9.539 -0.31,3.047 -0.57,5.59 -0.76,7.496 -0.25,1.969 -0.38,2.988 -0.38,3.051 0.06,-0.063 0.63,-0.887 1.78,-2.539 1.14,-1.594 2.67,-3.692 4.45,-6.168 1.84,-2.543 3.75,-5.149 5.85,-7.879 2.03,-2.735 4,-5.215 5.84,-7.438 l 154.83,-183.047"
         style="fill:#0a3470;fill-opacity:1;fill-rule:nonzero;stroke:none"
         id="path16"
         inkscape:connector-curvature="0" /><path
         d="m 1057.3,380.105 c 11.69,0 22.43,1.59 32.22,4.704 9.78,3.113 18.24,7.691 25.48,13.601 7.19,5.91 12.78,13.156 16.72,21.606 4.01,8.457 5.98,18.054 6.04,28.73 0,12.902 -2.48,24.09 -7.31,33.621 -4.9,9.535 -12.2,17.988 -21.86,25.297 -9.66,7.375 -21.68,14.109 -36.04,20.402 l -20.59,9.532 c -9.67,4.324 -17.48,8.648 -23.58,12.906 -6.04,4.258 -10.49,9.023 -13.35,14.363 -2.86,5.274 -4.26,11.758 -4.26,19.258 0.06,7.434 1.71,13.918 5.02,19.445 3.31,5.532 8.01,9.789 14.11,12.84 6.17,3.117 13.48,4.641 22.06,4.703 8.07,-0.062 15.12,-1.336 21.09,-3.746 5.98,-2.48 11.13,-5.789 15.52,-10.043 4.38,-4.195 8.19,-9.027 11.43,-14.429 l 22.12,13.726 c -4.57,7.692 -10.04,14.43 -16.58,20.277 -6.49,5.782 -14.18,10.36 -23.01,13.602 -8.84,3.305 -19.01,4.957 -30.57,5.02 -9.79,0 -18.82,-1.524 -27.08,-4.45 -8.26,-2.922 -15.51,-7.121 -21.61,-12.586 -6.165,-5.464 -10.997,-12.007 -14.364,-19.636 -3.433,-7.629 -5.148,-16.082 -5.211,-25.489 0,-11.945 2.223,-22.246 6.61,-30.757 4.386,-8.52 10.805,-16.016 19.325,-22.372 8.51,-6.359 18.94,-12.332 31.27,-17.796 l 20.59,-9.536 c 10.8,-4.765 19.83,-9.597 27.08,-14.621 7.24,-5.019 12.64,-10.675 16.27,-17.031 3.62,-6.289 5.46,-13.793 5.46,-22.5 -0.13,-9.215 -2.54,-17.094 -7.25,-23.644 -4.7,-6.61 -11.12,-11.696 -19.19,-15.254 -8.07,-3.493 -17.16,-5.274 -27.33,-5.336 -12.14,0.129 -22.43,1.968 -30.89,5.656 -8.45,3.687 -15.51,8.52 -21.23,14.617 -5.777,6.102 -10.609,12.778 -14.613,20.149 L 966.918,432.73 c 3.43,-6.925 7.75,-13.539 12.965,-19.832 5.211,-6.226 11.441,-11.882 18.812,-16.777 7.305,-4.891 15.825,-8.836 25.485,-11.629 9.72,-2.859 20.72,-4.324 33.12,-4.387 z m 165.88,3.051 h 27.46 v 234.907 h 79.7 v 24.406 h -186.86 v -24.406 h 79.7 z m 81.61,0 h 27.07 l 17.16,43.473 h 131.18 l 17.55,-43.473 h 28.98 L 1416.9,645.141 h -4.57 z m 53.76,67.117 45.77,115.165 c 1.27,3.117 2.48,6.421 3.68,9.976 1.21,3.563 2.36,6.867 3.31,10.043 1.02,3.18 1.78,5.723 2.41,7.754 0.58,2.035 0.89,3.051 0.89,3.117 0,-0.066 0.32,-1.082 0.83,-3.117 0.57,-2.031 1.33,-4.574 2.29,-7.754 0.95,-3.176 1.97,-6.48 3.18,-10.043 1.14,-3.555 2.35,-6.859 3.62,-9.976 l 45.76,-115.165 z m 222.33,-67.117 h 27.46 v 234.907 h 79.7 v 24.406 h -186.86 v -24.406 h 79.7 z m 133.47,0 h 163.22 v 24.407 h -135.76 v 64.828 h 116.31 v 24.023 h -116.31 v 121.649 h 130.42 v 24.406 H 1714.35 V 383.156"
         style="fill:#0a3470;fill-opacity:1;fill-rule:nonzero;stroke:none"
         id="path18"
         inkscape:connector-curvature="0" /><path
         d="m 1082.08,43.3984 c 13.22,0 25.49,1.9063 36.74,5.7813 11.25,3.8164 21.1,9.5976 29.55,17.2226 8.39,7.6915 14.94,17.2266 19.64,28.6641 4.64,11.3786 7.06,24.6636 7.12,39.8556 v 170.84 h -27.46 V 136.824 c -0.06,-15.379 -2.79,-28.152 -8.13,-38.3865 -5.34,-10.2305 -12.84,-17.9219 -22.63,-23.0078 -9.78,-5.0859 -21.42,-7.625 -34.83,-7.625 -13.54,0 -25.17,2.5391 -34.95,7.625 -9.79,5.0859 -17.36,12.7773 -22.63,23.0078 -5.28,10.2345 -7.95,23.0075 -8.01,38.3865 v 168.938 h -27.455 v -170.84 c 0.063,-15.192 2.414,-28.477 7.051,-39.8556 4.704,-11.4375 11.194,-20.9726 19.584,-28.6641 8.38,-7.625 18.23,-13.4062 29.49,-17.2226 11.31,-3.875 23.57,-5.7813 36.92,-5.7813 z m 336.35,0.3789 H 1423 V 305.762 h -25.55 V 130.727 c 0,-2.864 0.13,-5.911 0.32,-9.282 0.19,-3.304 0.38,-6.484 0.64,-9.535 0.25,-3.047 0.44,-5.59 0.63,-7.5 0.19,-1.969 0.32,-2.988 0.32,-3.051 -0.06,0.063 -0.63,0.891 -1.78,2.543 -1.14,1.59 -2.67,3.688 -4.45,6.168 -1.84,2.543 -3.75,5.149 -5.84,7.879 -2.04,2.735 -4.01,5.211 -5.85,7.438 l -154.83,183.047 h -4.57 V 46.4492 h 25.92 V 221.484 c 0,2.86 -0.12,5.911 -0.37,9.282 -0.2,3.3 -0.45,6.484 -0.77,9.531 -0.32,3.051 -0.57,5.594 -0.76,7.5 -0.26,1.973 -0.38,2.988 -0.38,3.051 0.06,-0.063 0.64,-0.891 1.78,-2.543 1.14,-1.59 2.67,-3.688 4.45,-6.164 1.84,-2.543 3.75,-5.149 5.85,-7.879 2.03,-2.735 4,-5.215 5.84,-7.438 z m 54.91,2.6719 h 27.84 V 305.762 h -27.84 z m 166.27,-2.6719 h 4.57 l 107.93,261.9847 h -27.84 l -70.93,-175.801 c -1.34,-3.305 -2.67,-6.988 -4.01,-10.93 -1.27,-4.004 -2.48,-7.816 -3.49,-11.441 -1.09,-3.688 -1.97,-6.676 -2.61,-9.0275 -0.64,-2.4102 -0.95,-3.6172 -0.95,-3.6836 0,0.0664 -0.32,1.2734 -0.96,3.6836 -0.63,2.3515 -1.52,5.3395 -2.54,9.0275 -1.08,3.625 -2.29,7.437 -3.56,11.441 -1.33,3.942 -2.67,7.625 -4,10.93 l -71.31,175.801 h -29.75 z m 140.33,2.6719 h 163.22 V 70.8555 H 1807.4 v 64.8285 h 116.31 v 24.023 H 1807.4 v 121.648 h 130.42 v 24.407 h -157.88 z m 311.18,79.6988 c 11.95,4.895 21.93,11.375 30,19.579 8.01,8.132 14.04,17.601 18.05,28.472 4.07,10.867 6.1,22.817 6.1,35.844 0,14.047 -2.29,26.949 -6.8,38.582 -4.58,11.695 -11.38,21.801 -20.34,30.316 -9.02,8.516 -20.27,15.063 -33.68,19.766 -13.41,4.641 -28.99,6.992 -46.72,7.055 h -58.34 V 46.4492 h 27.45 V 115.09 h 30.89 c 4.58,0 9.22,0.191 13.86,0.57 4.64,0.383 9.21,0.953 13.6,1.719 l 49.95,-70.9298 h 32.42 z m -84.28,12.969 v 142.238 h 29.37 c 14.55,-0.062 26.94,-1.843 37.18,-5.402 10.23,-3.558 18.56,-8.515 24.91,-14.937 6.42,-6.418 11.06,-13.981 13.98,-22.625 2.99,-8.645 4.45,-18.114 4.39,-28.348 0.06,-10.23 -1.4,-19.703 -4.33,-28.281 -2.92,-8.645 -7.56,-16.141 -13.85,-22.5 -6.35,-6.356 -14.68,-11.313 -24.92,-14.809 -10.29,-3.496 -22.75,-5.273 -37.36,-5.336 z M 2250.9,43.3984 c 11.69,0 22.44,1.586 32.23,4.7032 9.78,3.1132 18.24,7.6914 25.48,13.6015 7.18,5.9102 12.78,13.1524 16.72,21.6094 4,8.4531 5.97,18.0465 6.03,28.7265 0,12.902 -2.47,24.09 -7.31,33.621 -4.89,9.535 -12.2,17.988 -21.86,25.297 -9.66,7.375 -21.67,14.109 -36.03,20.402 l -20.6,9.532 c -9.66,4.324 -17.48,8.644 -23.58,12.902 -6.03,4.258 -10.48,9.027 -13.34,14.367 -2.87,5.274 -4.26,11.754 -4.26,19.258 0.06,7.434 1.71,13.914 5.02,19.445 3.3,5.532 8.01,9.789 14.11,12.84 6.17,3.113 13.47,4.641 22.05,4.703 8.08,-0.062 15.13,-1.332 21.1,-3.75 5.98,-2.476 11.13,-5.785 15.51,-10.043 4.39,-4.195 8.2,-9.023 11.44,-14.425 l 22.12,13.726 c -4.58,7.691 -10.04,14.43 -16.59,20.277 -6.48,5.782 -14.17,10.36 -23.01,13.602 -8.83,3.305 -19,4.957 -30.57,5.02 -9.79,0 -18.81,-1.528 -27.07,-4.45 -8.26,-2.925 -15.51,-7.117 -21.61,-12.586 -6.17,-5.464 -11,-12.007 -14.36,-19.636 -3.44,-7.629 -5.15,-16.082 -5.22,-25.489 0,-11.945 2.23,-22.246 6.61,-30.761 4.39,-8.516 10.81,-16.016 19.32,-22.371 8.52,-6.356 18.94,-12.329 31.27,-17.793 l 20.59,-9.539 c 10.81,-4.762 19.84,-9.594 27.08,-14.618 7.25,-5.019 12.65,-10.675 16.27,-17.031 3.63,-6.293 5.47,-13.793 5.47,-22.5 -0.13,-9.215 -2.54,-17.0937 -7.25,-23.6445 -4.7,-6.6093 -11.12,-11.6914 -19.19,-15.2539 -8.08,-3.4922 -17.16,-5.2734 -27.33,-5.3359 -12.14,0.1289 -22.44,1.9687 -30.89,5.6562 -8.45,3.6875 -15.51,8.5157 -21.23,14.6172 -5.78,6.1016 -10.61,12.7769 -14.62,20.1489 l -22.88,-12.2036 c 3.44,-6.9296 7.76,-13.539 12.97,-19.832 5.21,-6.2266 11.44,-11.8828 18.81,-16.7773 7.31,-4.8946 15.83,-8.836 25.49,-11.6289 9.73,-2.8633 20.72,-4.3243 33.11,-4.3868 z m 115.93,3.0508 h 27.84 V 305.762 h -27.84 z m 134.99,0 h 27.46 V 281.355 h 79.7 v 24.407 h -186.85 v -24.407 h 79.69 z m 213.94,0 h 28.22 v 82.3668 l 96.1,176.946 h -28.6 l -70.17,-128.895 c -1.33,-2.605 -2.67,-5.465 -4.01,-8.453 -1.26,-2.988 -2.47,-5.848 -3.49,-8.578 -1.08,-2.668 -1.97,-4.895 -2.6,-6.613 -0.64,-1.715 -0.96,-2.606 -0.96,-2.668 0,0.062 -0.32,0.953 -0.95,2.734 -0.57,1.715 -1.4,4.004 -2.42,6.734 -1.08,2.672 -2.22,5.532 -3.56,8.582 -1.33,2.989 -2.66,5.719 -4.13,8.262 l -70.55,128.895 h -30.89 l 98.01,-178.086 V 46.4492"
         style="fill:#0a3470;fill-opacity:1;fill-rule:nonzero;stroke:none"
         id="path20"
         inkscape:connector-curvature="0" /><path
         d="M 482.387,8.80078 C 312.578,5.73828 178.055,-11.6953 95.3242,124.887 59.0703,195.289 68,271.145 8.375,247.395 c 20.1836,21.687 37.3477,27.941 56.6758,15.398 -31.6953,73.18 -55.57424,185.469 27.9961,275.465 -36.7227,-106.172 9.1091,-79.637 35.3591,-189.875 0.43,93.785 -90.6638,124.797 45.93,308.515 -53.91,-87.753 9.117,-88.484 -12.406,-223.753 43.527,116.281 -54.961,206.398 102.933,327.621 -29.668,-56.356 -16.3,-150.657 -37.453,-219.129 54.766,134.672 -20.004,191.761 152.688,321.644 -58.66,-80.008 -11.227,-108.64 -64.664,-199.781 91.972,109.887 0.515,193.367 170.539,286.668 -79.571,-88.371 -23.219,-119.559 -71.977,-188.738 79.852,68.418 -16.168,169.289 193.926,282.12 -69.274,-63.702 -47.106,-100.671 -83.004,-161.995 59.883,104.906 144.617,154.315 97.352,220.835 26.73,-17.79 52.015,-67.11 22.304,-109.097 55.903,20.157 151.571,205.937 56.364,211.567 1.441,0.02 16.628,-3.89 19.593,-12.74 3.082,-9.21 2.996,-18.15 2.403,-19.23 -3.594,-6.52 -8.993,-12.22 -15.457,-13.61 -26.008,-5.6 -35.36,16.85 -26.446,35.86 3.09,6.59 9.426,12.82 16.168,16.59 4.465,2.49 9.074,3.57 13.117,3.62 35.821,0.42 51.5,-35.65 51.149,-77.26 -0.567,-67.28 -55.039,-166.305 -141.5,-218.442 71.078,33.157 106.265,77.266 129.738,127.982 C 734.582,868.387 536.891,879.98 457.035,756.676 534.129,849.965 715.293,875.094 724.586,960.422 731.609,855.809 617.148,781.789 534.813,756.676 453.715,728.73 386.977,694.961 329.488,631.168 l -26.445,-29.344 c 71.137,60.043 120.039,104.153 215.258,126.969 66.976,16.047 109.062,29.32 142.512,88.906 -4.922,-26.812 -5.942,-52.308 -20.227,-75.695 -89.102,-145.863 -325.102,-86.387 -432.43,-304.801 35.164,42.633 58.317,77.047 103.785,108.824 76.426,53.368 189.098,54.703 259.899,107.84 C 537.422,556.027 437.109,502.609 341.566,472.707 258.922,444.289 216.477,442.586 191.004,335.828 245.051,488.816 355.844,403.574 437.426,496.883 364.949,304.699 201.695,429.73 200.789,212.531 227.348,386.559 333.23,329.512 369.059,391.422 379.434,308.43 323.648,271.996 269.504,242.105 182.496,171.492 238.105,85.9297 292.789,66.9609 c -12.125,33.9301 -19.918,69.0001 3.352,100.0661 26.863,35.797 76.3,40.239 117.019,38.602 45.903,-1.848 81.61,-8.742 126.723,13.156 37.066,17.996 55.015,42.699 62.972,86.875 12.368,68.664 -61.648,112.469 -92.527,72.86 18.399,-3.446 29.137,-46.571 -4.664,-48.895 -20.297,-1.398 -31.41,16.504 -26.445,35.855 8.992,35.047 49.273,45.278 71.554,42.383 26.684,-3.468 56.297,-16.039 69.997,-42.383 21.164,-40.691 18.054,-83.296 -4.668,-122.246 -34.68,-59.429 -118.86,-63.57 -185.508,-52.156 C 222.938,226.645 289.883,9.23047 482.387,8.80078"
         style="fill:#0a3470;fill-opacity:1;fill-rule:evenodd;stroke:none"
         id="path22"
         inkscape:connector-curvature="0" /></g></g></svg>